HIERARCHY
ROOT hip
{
	OFFSET 0.000000 0.000000 0.000000 
	CHANNELS 6 Xposition Yposition Zposition Zrotation Yrotation Xrotation
	JOINT abdomen
	{
		OFFSET 0.000000 0.161626 -0.005715 
		CHANNELS 3 Zrotation Xrotation Yrotation
		JOINT chest
		{
			OFFSET 0.000000 0.091440 -0.003810 
			CHANNELS 3 Zrotation Xrotation Yrotation
			JOINT neck
			{
				OFFSET 0.000000 0.173355 -0.017145 
				CHANNELS 3 Zrotation Xrotation Yrotation
				JOINT head
				{
					OFFSET -0.001905 0.055245 0.009525 
					CHANNELS 3 Zrotation Xrotation Yrotation
					JOINT leftEye
					{
						OFFSET 0.032385 0.062865 0.062865 
						CHANNELS 3 Zrotation Xrotation Yrotation
						End Site
						{
							OFFSET 0.007812 0.000000 0.000000 
						}
					}
					JOINT rightEye
					{
						OFFSET -0.028575 0.062865 0.062865 
						CHANNELS 3 Zrotation Xrotation Yrotation
						End Site
						{
							OFFSET 0.007812 0.000000 0.000000 
						}
					}
				}
			}
			JOINT rCollar
			{
				OFFSET -0.020955 0.150495 -0.038100 
				CHANNELS 3 Zrotation Xrotation Yrotation
				JOINT rShldr
				{
					OFFSET -0.068580 -0.015240 0.011430 
					CHANNELS 3 Zrotation Xrotation Yrotation
					JOINT rForeArm
					{
						OFFSET -0.220111 -0.013371 0.003810 
						CHANNELS 3 Zrotation Xrotation Yrotation
						JOINT rHand
						{
							OFFSET -0.176468 0.006041 0.055245 
							CHANNELS 3 Zrotation Xrotation Yrotation
							JOINT rThumb1
							{
								OFFSET -0.009525 -0.003812 0.026670 
								CHANNELS 3 Zrotation Xrotation Yrotation
								JOINT rThumb2
								{
									OFFSET -0.026331 -0.004098 0.026670 
									CHANNELS 3 Zrotation Xrotation Yrotation
									End Site
									{
										OFFSET -0.013927 -0.009235 0.011176 
									}
								}
							}
							JOINT rIndex1
							{
								OFFSET -0.060621 0.007330 0.043815 
								CHANNELS 3 Zrotation Xrotation Yrotation
								JOINT rIndex2
								{
									OFFSET -0.019848 -0.006908 0.012230 
									CHANNELS 3 Zrotation Xrotation Yrotation
									End Site
									{
										OFFSET -0.012697 -0.001834 0.009102 
									}
								}
							}
							JOINT rMid1
							{
								OFFSET -0.064431 0.009235 0.026670 
								CHANNELS 3 Zrotation Xrotation Yrotation
								JOINT rMid2
								{
									OFFSET -0.024232 -0.004610 0.008318 
									CHANNELS 3 Zrotation Xrotation Yrotation
									End Site
									{
										OFFSET -0.019418 -0.002570 0.006542 
									}
								}
							}
							JOINT rRing1
							{
								OFFSET -0.068970 0.004271 0.011850 
								CHANNELS 3 Zrotation Xrotation Yrotation
								JOINT rRing2
								{
									OFFSET -0.020385 -0.006405 -0.000155 
									CHANNELS 3 Zrotation Xrotation Yrotation
									End Site
									{
										OFFSET -0.018269 -0.002297 0.001313 
									}
								}
							}
							JOINT rPinky1
							{
								OFFSET -0.064625 -0.000373 -0.003581 
								CHANNELS 3 Zrotation Xrotation Yrotation
								JOINT rPinky2
								{
									OFFSET -0.014276 -0.005058 -0.005476 
									CHANNELS 3 Zrotation Xrotation Yrotation
									End Site
									{
										OFFSET -0.013221 -0.004044 -0.004744 
									}
								}
							}
						}
					}
				}
			}
			JOINT lCollar
			{
				OFFSET 0.020955 0.150495 -0.038100 
				CHANNELS 3 Zrotation Xrotation Yrotation
				JOINT lShldr
				{
					OFFSET 0.068580 -0.015240 0.011430 
					CHANNELS 3 Zrotation Xrotation Yrotation
					JOINT lForeArm
					{
						OFFSET 0.220111 -0.013371 0.003810 
						CHANNELS 3 Zrotation Xrotation Yrotation
						JOINT lHand
						{
							OFFSET 0.176468 0.006041 0.055245 
							CHANNELS 3 Zrotation Xrotation Yrotation
							JOINT lThumb1
							{
								OFFSET 0.009525 -0.003812 0.026670 
								CHANNELS 3 Zrotation Xrotation Yrotation
								JOINT lThumb2
								{
									OFFSET 0.026331 -0.004098 0.026670 
									CHANNELS 3 Zrotation Xrotation Yrotation
									End Site
									{
										OFFSET 0.013927 -0.009235 0.011176 
									}
								}
							}
							JOINT lIndex1
							{
								OFFSET 0.060621 0.007330 0.043815 
								CHANNELS 3 Zrotation Xrotation Yrotation
								JOINT lIndex2
								{
									OFFSET 0.019848 -0.006908 0.012230 
									CHANNELS 3 Zrotation Xrotation Yrotation
									End Site
									{
										OFFSET 0.012697 -0.001834 0.009102 
									}
								}
							}
							JOINT lMid1
							{
								OFFSET 0.064431 0.009235 0.026670 
								CHANNELS 3 Zrotation Xrotation Yrotation
								JOINT lMid2
								{
									OFFSET 0.024232 -0.004610 0.008318 
									CHANNELS 3 Zrotation Xrotation Yrotation
									End Site
									{
										OFFSET 0.019418 -0.002570 0.006542 
									}
								}
							}
							JOINT lRing1
							{
								OFFSET 0.068970 0.004271 0.011850 
								CHANNELS 3 Zrotation Xrotation Yrotation
								JOINT lRing2
								{
									OFFSET 0.020385 -0.006405 -0.000155 
									CHANNELS 3 Zrotation Xrotation Yrotation
									End Site
									{
										OFFSET 0.018269 -0.002297 0.001313 
									}
								}
							}
							JOINT lPinky1
							{
								OFFSET 0.064625 -0.000373 -0.003581 
								CHANNELS 3 Zrotation Xrotation Yrotation
								JOINT lPinky2
								{
									OFFSET 0.014276 -0.005058 -0.005476 
									CHANNELS 3 Zrotation Xrotation Yrotation
									End Site
									{
										OFFSET 0.013221 -0.004044 -0.004744 
									}
								}
							}
						}
					}
				}
			}
		}
	}
	JOINT rButtock
	{
		OFFSET -0.068580 0.033991 0.009525 
		CHANNELS 3 Zrotation Xrotation Yrotation
		JOINT rThigh
		{
			OFFSET 0.000000 -0.013335 -0.017145 
			CHANNELS 3 Zrotation Xrotation Yrotation
			JOINT rShin
			{
				OFFSET 0.000000 -0.287655 0.005715 
				CHANNELS 3 Zrotation Xrotation Yrotation
				JOINT rFoot
				{
					OFFSET 0.005715 -0.352425 -0.040005 
					CHANNELS 3 Zrotation Xrotation Yrotation
					End Site
					{
						OFFSET -0.008766 -0.028903 0.094555 
					}
				}
			}
		}
	}
	JOINT lButtock
	{
		OFFSET 0.068580 0.033991 0.009525 
		CHANNELS 3 Zrotation Xrotation Yrotation
		JOINT lThigh
		{
			OFFSET 0.000000 -0.013335 -0.017145 
			CHANNELS 3 Zrotation Xrotation Yrotation
			JOINT lShin
			{
				OFFSET 0.000000 -0.287655 0.005715 
				CHANNELS 3 Zrotation Xrotation Yrotation
				JOINT lFoot
				{
					OFFSET -0.005715 -0.352425 -0.040005 
					CHANNELS 3 Zrotation Xrotation Yrotation
					End Site
					{
						OFFSET 0.008766 -0.028903 0.094555 
					}
				}
			}
		}
	}
}
MOTION
Frames: 8
Frame Time: 0.008333
1.507516 0.649909 -0.014582 69.056801 -87.703003 -61.523998 0.524037 -0.232819 2.381930 0.609361 -1.553860 0.745278 -2.197000 3.711320 -0.576294 1.680610 3.077640 -1.863760 -0.000000 0.000000 0.000000 -0.000000 0.000000 0.000000 0.000000 0.000000 0.000000 22.754101 -6.275840 -5.176230 -7.376960 -4.364650 10.211800 3.567430 -44.049900 -0.991025 -0.000000 0.000000 -0.000000 -0.000000 0.000000 -0.000000 -0.000000 0.000000 -0.000000 7.730910 5.474880 0.417314 -0.000000 0.000000 -0.000000 2.905540 0.965183 0.102902 -0.000000 0.000000 -0.000000 10.278600 0.731801 0.025912 -0.000000 0.000000 -0.000000 2.221670 -0.733487 -0.208920 0.000000 0.000000 0.000000 -24.832199 1.760750 5.824710 24.992599 -22.819500 -14.469000 -0.054442 5.201750 -0.720395 0.000000 -0.000000 -0.000000 0.000000 -0.000000 -0.000000 0.000000 -0.000000 -0.000000 -7.730910 5.474880 -0.417314 0.000000 -0.000000 -0.000000 -2.905540 0.965183 -0.102902 0.000000 -0.000000 -0.000000 -10.278600 0.731801 -0.025912 0.000000 -0.000000 -0.000000 -2.221670 -0.733487 0.208920 -0.000000 0.000000 -0.000000 1.690740 -7.302980 -2.453100 0.029180 13.322000 0.206365 -0.748909 0.175658 -3.883770 0.000000 0.000000 0.000000 0.698311 -9.606260 0.054360 -0.068028 9.191340 -0.148436 0.949174 -3.322710 3.335440 
1.510836 0.650135 -0.017454 72.466400 -88.568001 -65.716698 -0.159832 -0.497042 4.872970 0.949816 -3.179150 1.477280 -4.436510 7.626040 -1.186960 3.655060 6.378170 -3.845020 -0.000000 0.000000 0.000000 -0.000000 0.000000 0.000000 0.000000 0.000000 0.000000 45.540401 -12.810200 -10.920100 -13.500000 -8.509060 21.182699 -104.161003 -88.408401 -112.908997 -0.000000 0.000000 -0.000000 -0.000000 0.000000 -0.000000 -0.000000 0.000000 -0.000000 7.730910 5.474880 0.417314 -0.000000 0.000000 -0.000000 2.905540 0.965183 0.102902 -0.000000 0.000000 -0.000000 10.278600 0.731801 0.025912 -0.000000 0.000000 -0.000000 2.221670 -0.733487 -0.208920 0.000000 0.000000 0.000000 -51.461399 3.581970 11.973700 35.957802 -41.725101 -37.979401 0.032506 10.641800 -1.494220 0.000000 -0.000000 -0.000000 0.000000 -0.000000 -0.000000 0.000000 -0.000000 -0.000000 -7.730910 5.474880 -0.417314 0.000000 -0.000000 -0.000000 -2.905540 0.965183 -0.102902 0.000000 -0.000000 -0.000000 -10.278600 0.731801 -0.025912 0.000000 -0.000000 -0.000000 -2.221670 -0.733487 0.208920 -0.000000 0.000000 -0.000000 1.896250 -8.837940 -4.915560 0.002043 22.092300 0.397432 -1.121110 -0.427274 -8.089880 0.000000 0.000000 0.000000 0.969521 -17.676100 0.101371 -0.049187 21.030300 -0.405775 2.454280 -11.040100 7.143320 
1.513633 0.649728 -0.020231 93.176102 -89.511803 -87.285004 -0.709473 -0.683928 7.081680 1.294700 -4.649320 2.130190 -6.363410 11.129400 -1.758340 5.648100 9.193590 -5.656110 -0.000000 0.000000 0.000000 -0.000000 0.000000 0.000000 0.000000 0.000000 0.000000 64.756500 -18.197800 -16.270000 -17.634501 -11.430600 31.232201 -164.873001 -47.793400 -176.817993 -0.000000 0.000000 -0.000000 -0.000000 0.000000 -0.000000 -0.000000 0.000000 -0.000000 7.730910 5.474880 0.417314 -0.000000 0.000000 -0.000000 2.905540 0.965183 0.102902 -0.000000 0.000000 -0.000000 10.278600 0.731801 0.025912 -0.000000 0.000000 -0.000000 2.221670 -0.733487 -0.208920 0.000000 0.000000 0.000000 -75.555496 5.064210 17.536501 31.053400 -46.263100 -68.230202 0.241753 15.595200 -2.234590 0.000000 -0.000000 -0.000000 0.000000 -0.000000 -0.000000 0.000000 -0.000000 -0.000000 -7.730910 5.474880 -0.417314 0.000000 -0.000000 -0.000000 -2.905540 0.965183 -0.102902 0.000000 -0.000000 -0.000000 -10.278600 0.731801 -0.025912 0.000000 -0.000000 -0.000000 -2.221670 -0.733487 0.208920 -0.000000 0.000000 -0.000000 2.001070 -10.157400 -7.168340 -0.078288 29.896900 0.599759 -1.546490 -1.070890 -11.795500 0.000000 0.000000 0.000000 1.281240 -24.978901 0.155394 0.075562 31.729401 -0.690937 4.672830 -17.682301 10.768200 
1.517102 0.648998 -0.023047 60.025501 -90.344002 -54.047001 -0.972734 -0.683078 8.583990 1.572360 -5.734280 2.579700 -7.665670 13.608500 -2.204520 7.241940 10.834700 -6.974970 -0.000000 0.000000 0.000000 -0.000000 0.000000 0.000000 0.000000 0.000000 0.000000 77.701500 -21.370701 -19.868601 -19.889299 -12.873200 38.411900 -163.544006 -18.830900 -177.253006 -0.000000 0.000000 -0.000000 -0.000000 0.000000 -0.000000 -0.000000 0.000000 -0.000000 7.730910 5.474880 0.417314 -0.000000 0.000000 -0.000000 2.905540 0.965183 0.102902 -0.000000 0.000000 -0.000000 10.278600 0.731801 0.025912 -0.000000 0.000000 -0.000000 2.221670 -0.733487 -0.208920 0.000000 0.000000 0.000000 -92.557800 5.908160 21.571899 27.925100 -40.792400 -85.353600 0.481886 19.340401 -2.827440 0.000000 -0.000000 -0.000000 0.000000 -0.000000 -0.000000 0.000000 -0.000000 -0.000000 -7.730910 5.474880 -0.417314 0.000000 -0.000000 -0.000000 -2.905540 0.965183 -0.102902 0.000000 -0.000000 -0.000000 -10.278600 0.731801 -0.025912 0.000000 -0.000000 -0.000000 -2.221670 -0.733487 0.208920 -0.000000 0.000000 -0.000000 2.109470 -10.985400 -8.853490 -0.171791 35.288502 0.774594 -1.958700 -1.835160 -14.249200 0.000000 0.000000 0.000000 1.671280 -30.363899 0.218293 0.254734 39.580601 -0.958004 6.641960 -21.928101 13.388700 
1.520375 0.647392 -0.025445 60.983200 -90.830498 -55.050999 -0.859141 -0.413880 9.100850 1.736260 -6.304940 2.742440 -8.162300 14.660300 -2.457420 8.064720 10.863600 -7.565990 -0.000000 0.000000 0.000000 -0.000000 0.000000 0.000000 0.000000 0.000000 0.000000 83.027603 -21.879101 -20.511000 -20.670200 -13.299600 41.302299 -162.968994 -7.510340 -177.192993 -0.000000 -0.000000 -0.000000 -0.000000 -0.000000 -0.000000 -0.000000 -0.000000 -0.000000 7.730910 5.474880 0.417314 -0.000000 -0.000000 -0.000000 2.905540 0.965183 0.102902 -0.000000 -0.000000 -0.000000 10.278600 0.731801 0.025912 -0.000000 -0.000000 -0.000000 2.221670 -0.733487 -0.208920 0.000000 0.000000 0.000000 -99.338600 6.031990 23.462099 28.100401 -36.846600 -88.500099 0.633156 21.381300 -3.163490 0.000000 -0.000000 -0.000000 0.000000 -0.000000 -0.000000 0.000000 -0.000000 -0.000000 -7.730910 5.474880 -0.417314 0.000000 -0.000000 -0.000000 -2.905540 0.965183 -0.102902 0.000000 -0.000000 -0.000000 -10.278600 0.731801 -0.025912 0.000000 -0.000000 -0.000000 -2.221670 -0.733487 0.208920 -0.000000 0.000000 -0.000000 2.306960 -11.218600 -9.789640 -0.215395 37.369999 0.869337 -2.302150 -2.911280 -14.875600 0.000000 0.000000 0.000000 2.182190 -33.137199 0.342150 0.380365 43.571999 -1.116830 7.267800 -23.014700 14.168600 
1.523211 0.646648 -0.027538 76.273102 -90.835899 -70.611900 -0.473769 0.046705 8.914140 1.809240 -6.507690 2.698960 -8.103820 14.693400 -2.565620 8.296060 9.748100 -7.628870 -0.000000 0.000000 0.000000 -0.000000 0.000000 0.000000 0.000000 0.000000 -0.000000 83.074799 -20.558001 -18.967899 -20.627399 -13.307600 41.091900 -163.031006 -8.784080 -177.201996 -0.000000 -0.000000 -0.000000 -0.000000 -0.000000 -0.000000 -0.000000 -0.000000 -0.000000 7.730910 5.474880 0.417314 -0.000000 -0.000000 -0.000000 2.905540 0.965183 0.102902 -0.000000 -0.000000 -0.000000 10.278600 0.731801 0.025912 -0.000000 -0.000000 -0.000000 2.221670 -0.733487 -0.208920 0.000000 0.000000 -0.000000 -98.749603 5.681620 23.811001 28.277800 -35.986500 -85.353897 0.682053 22.208099 -3.298630 0.000000 -0.000000 -0.000000 0.000000 -0.000000 -0.000000 0.000000 -0.000000 -0.000000 -7.730910 5.474880 -0.417314 0.000000 -0.000000 -0.000000 -2.905540 0.965183 -0.102902 0.000000 -0.000000 -0.000000 -10.278600 0.731801 -0.025912 0.000000 -0.000000 -0.000000 -2.221670 -0.733487 0.208920 -0.000000 0.000000 -0.000000 2.597160 -11.032100 -10.181600 -0.201902 37.084301 0.891373 -2.537620 -4.220170 -14.203000 0.000000 0.000000 0.000000 2.776030 -34.041199 0.505225 0.418314 44.801201 -1.159580 6.738660 -21.899799 13.533900 
1.524555 0.646845 -0.029548 70.653000 -90.988503 -65.380600 0.036641 0.570815 8.440660 1.820120 -6.526250 2.569640 -7.833030 14.313200 -2.612570 8.316030 8.166980 -7.476550 -0.000000 0.000000 0.000000 -0.000000 0.000000 0.000000 0.000000 0.000000 -0.000000 80.912903 -18.462500 -16.642500 -20.278601 -13.178400 39.683399 -163.352005 -14.975000 -177.255997 -0.000000 -0.000000 -0.000000 -0.000000 -0.000000 -0.000000 -0.000000 -0.000000 -0.000000 7.730910 5.474880 0.417314 -0.000000 -0.000000 -0.000000 2.905540 0.965183 0.102902 -0.000000 -0.000000 -0.000000 10.278600 0.731801 0.025912 -0.000000 -0.000000 -0.000000 2.221670 -0.733487 -0.208920 0.000000 0.000000 -0.000000 -95.172401 5.096170 23.496300 28.384800 -35.876499 -79.690498 0.683925 22.580900 -3.354690 0.000000 -0.000000 -0.000000 0.000000 -0.000000 -0.000000 0.000000 -0.000000 -0.000000 -7.730910 5.474880 -0.417314 0.000000 -0.000000 -0.000000 -2.905540 0.965183 -0.102902 0.000000 -0.000000 -0.000000 -10.278600 0.731801 -0.025912 0.000000 -0.000000 -0.000000 -2.221670 -0.733487 0.208920 -0.000000 0.000000 -0.000000 2.976700 -10.575200 -10.245200 -0.162062 35.743698 0.879250 -2.645270 -5.433150 -13.131400 0.000000 0.000000 0.000000 3.359730 -34.080898 0.592256 0.406512 44.724098 -1.141370 5.827450 -19.930799 12.381100 
1.525578 0.647427 -0.031786 76.665802 -91.250298 -71.866096 0.511821 1.028440 8.096540 1.799970 -6.544250 2.475300 -7.685820 14.124600 -2.683800 8.491410 6.799960 -7.413670 -0.000000 0.000000 0.000000 -0.000000 0.000000 0.000000 -0.000000 0.000000 -0.000000 79.830704 -16.750299 -14.832200 -20.124300 -13.168800 38.982399 -163.565994 -18.406500 -177.319000 -0.000000 -0.000000 -0.000000 -0.000000 -0.000000 -0.000000 -0.000000 -0.000000 -0.000000 7.730910 5.474880 0.417314 -0.000000 -0.000000 -0.000000 2.905540 0.965183 0.102902 -0.000000 -0.000000 -0.000000 10.278600 0.731801 0.025912 -0.000000 -0.000000 -0.000000 2.221670 -0.733487 -0.208920 -0.000000 0.000000 -0.000000 -92.985397 4.511490 23.393600 28.423901 -34.933601 -75.235298 0.712922 23.258499 -3.463100 0.000000 -0.000000 -0.000000 0.000000 -0.000000 -0.000000 0.000000 -0.000000 -0.000000 -7.730910 5.474880 -0.417314 0.000000 -0.000000 -0.000000 -2.905540 0.965183 -0.102902 0.000000 -0.000000 -0.000000 -10.278600 0.731801 -0.025912 0.000000 -0.000000 -0.000000 -2.221670 -0.733487 0.208920 -0.000000 0.000000 -0.000000 3.433870 -9.994060 -10.197900 -0.131248 34.660000 0.874462 -2.698530 -6.200160 -12.560300 0.000000 0.000000 0.000000 3.849670 -34.261200 0.493562 0.403631 44.796398 -1.134840 5.209070 -18.482201 11.550800 
